<svg xmlns="http://www.w3.org/2000/svg" xmlns:svg="http://www.w3.org/2000/svg" id="svg64" width="370" height="370" version="1.1" viewBox="0 0 370 370"><metadata id="metadata70"/><path style="color:#000;display:inline;overflow:visible;visibility:visible;opacity:1;fill:none;fill-opacity:1;fill-rule:nonzero;stroke:gray;stroke-width:22.82134438;stroke-linecap:butt;stroke-linejoin:miter;stroke-miterlimit:4;stroke-dasharray:none;stroke-dashoffset:0;stroke-opacity:1;marker:none;enable-background:accumulate" id="path138-9-6-8" d="m -337.79468,-782.1021 -152.47631,86.77895 -151.39093,-88.65889 1.08538,-175.43784 152.47632,-86.77892 151.39093,88.65887 z" transform="matrix(0.28482108,0.49332459,0.49332459,-0.28482108,667.75744,106.50426)"/><path style="color:#000;display:inline;overflow:visible;visibility:visible;opacity:1;fill:none;fill-opacity:1;fill-rule:nonzero;stroke:gray;stroke-width:22.82134438;stroke-linecap:butt;stroke-linejoin:miter;stroke-miterlimit:4;stroke-dasharray:none;stroke-dashoffset:0;stroke-opacity:1;marker:none;enable-background:accumulate" id="path138-9-6-5-9" d="m -33.92743,-780.22215 -152.47631,86.77894 -151.39093,-88.65889 1.08538,-175.43783 152.47632,-86.77897 151.390925,88.65891 z" transform="matrix(0.28482108,0.49332459,0.49332459,-0.28482108,667.75744,106.50426)"/><path style="color:#000;display:inline;overflow:visible;visibility:visible;opacity:1;fill:none;fill-opacity:1;fill-rule:nonzero;stroke:gray;stroke-width:22.82134438;stroke-linecap:butt;stroke-linejoin:miter;stroke-miterlimit:4;stroke-dasharray:none;stroke-dashoffset:0;stroke-opacity:1;marker:none;enable-background:accumulate" id="path138-9-6-6-2" d="m -187.48914,-518.00542 -152.47631,86.77895 -151.39093,-88.65889 1.08538,-175.43784 152.47632,-86.77894 151.39093,88.65889 z" transform="matrix(0.28482108,0.49332459,0.49332459,-0.28482108,667.75744,106.50426)"/><ellipse style="color:#000;display:inline;overflow:visible;visibility:visible;opacity:1;fill:#9558b2;fill-opacity:1;fill-rule:nonzero;stroke:#9558b2;stroke-width:5.18051338;stroke-linecap:butt;stroke-linejoin:miter;stroke-miterlimit:4;stroke-dasharray:none;stroke-dashoffset:0;stroke-opacity:1;marker:none;enable-background:accumulate" id="path74-2-9-2-3-6" cx="-285.048" cy="-192.344" rx="57.407" ry="57.408" transform="matrix(-0.99815577,-0.06070475,0.06070247,-0.9981559,0,0)"/><ellipse style="color:#000;display:inline;overflow:visible;visibility:visible;opacity:1;fill:#389826;fill-opacity:1;fill-rule:nonzero;stroke:#389826;stroke-width:5.17890787;stroke-linecap:butt;stroke-linejoin:miter;stroke-miterlimit:4;stroke-dasharray:none;stroke-dashoffset:0;stroke-opacity:1;marker:none;enable-background:accumulate" id="path74-2-9-3-0-6" cx="145.288" cy="-130.127" rx="57.378" ry="57.402" transform="matrix(0.50031529,0.8658433,-0.86620732,0.49968478,0,0)"/><ellipse style="color:#000;display:inline;overflow:visible;visibility:visible;opacity:1;fill:#cb3c33;fill-opacity:1;fill-rule:nonzero;stroke:#cb3c33;stroke-width:5.17894316;stroke-linecap:butt;stroke-linejoin:miter;stroke-miterlimit:4;stroke-dasharray:none;stroke-dashoffset:0;stroke-opacity:1;marker:none;enable-background:accumulate" id="path74-2-9-3-7-4-5-7-4" cx="-124.402" cy="196.348" rx="57.4" ry="57.38" transform="matrix(0.53409965,-0.84542153,0.84503369,0.53471306,0,0)"/></svg>