<svg xmlns="http://www.w3.org/2000/svg" xmlns:svg="http://www.w3.org/2000/svg" id="svg64" width="1280" height="640" version="1.1" viewBox="0 0 1280 640"><metadata id="metadata70"/><g id="g827" transform="matrix(0.93258146,0,0,0.93258146,-0.44230221,51.680787)"><path id="path138-9-6-8" d="m -337.79468,-782.1021 -152.47631,86.77895 -151.39093,-88.65889 1.08538,-175.43784 152.47632,-86.77892 151.39093,88.65887 z" transform="matrix(0.38181808,0.66132831,0.66132831,-0.38181808,929.49984,181.93753)" style="color:#000;display:inline;overflow:visible;visibility:visible;opacity:1;fill:none;fill-opacity:1;fill-rule:nonzero;stroke:gray;stroke-width:22.82134438;stroke-linecap:butt;stroke-linejoin:miter;stroke-miterlimit:4;stroke-dasharray:none;stroke-dashoffset:0;stroke-opacity:1;marker:none;enable-background:accumulate"/><path id="path138-9-6-5-9" d="m -33.92743,-780.22215 -152.47631,86.77894 -151.39093,-88.65889 1.08538,-175.43783 152.47632,-86.77897 151.390925,88.65891 z" transform="matrix(0.38181808,0.66132831,0.66132831,-0.38181808,929.49984,181.93753)" style="color:#000;display:inline;overflow:visible;visibility:visible;opacity:1;fill:none;fill-opacity:1;fill-rule:nonzero;stroke:gray;stroke-width:22.82134438;stroke-linecap:butt;stroke-linejoin:miter;stroke-miterlimit:4;stroke-dasharray:none;stroke-dashoffset:0;stroke-opacity:1;marker:none;enable-background:accumulate"/><path id="path138-9-6-6-2" d="m -187.48914,-518.00542 -152.47631,86.77895 -151.39093,-88.65889 1.08538,-175.43784 152.47632,-86.77894 151.39093,88.65889 z" transform="matrix(0.38181808,0.66132831,0.66132831,-0.38181808,929.49984,181.93753)" style="color:#000;display:inline;overflow:visible;visibility:visible;opacity:1;fill:none;fill-opacity:1;fill-rule:nonzero;stroke:gray;stroke-width:22.82134438;stroke-linecap:butt;stroke-linejoin:miter;stroke-miterlimit:4;stroke-dasharray:none;stroke-dashoffset:0;stroke-opacity:1;marker:none;enable-background:accumulate"/><g id="g825" transform="matrix(2.2084718,0,0,2.2084718,43.005115,40.265469)"><ellipse style="color:#000;display:inline;overflow:visible;visibility:visible;opacity:1;fill:#9558b2;fill-opacity:1;fill-rule:nonzero;stroke:#9558b2;stroke-width:3.1445992;stroke-linecap:butt;stroke-linejoin:miter;stroke-miterlimit:4;stroke-dasharray:none;stroke-dashoffset:0;stroke-opacity:1;marker:none;enable-background:accumulate" id="path74-2-9-2-3-6" cx="-169.077" cy="-116.494" rx="34.846" ry="34.847" transform="matrix(-0.99815577,-0.06070475,0.06070247,-0.9981559,0,0)"/><ellipse style="color:#000;display:inline;overflow:visible;visibility:visible;opacity:1;fill:#389826;fill-opacity:1;fill-rule:nonzero;stroke:#389826;stroke-width:3.14362454;stroke-linecap:butt;stroke-linejoin:miter;stroke-miterlimit:4;stroke-dasharray:none;stroke-dashoffset:0;stroke-opacity:1;marker:none;enable-background:accumulate" id="path74-2-9-3-0-6" cx="85.821" cy="-75.88" rx="34.829" ry="34.843" transform="matrix(0.50031529,0.8658433,-0.86620732,0.49968478,0,0)"/><ellipse style="color:#000;display:inline;overflow:visible;visibility:visible;opacity:1;fill:#cb3c33;fill-opacity:1;fill-rule:nonzero;stroke:#cb3c33;stroke-width:3.143646;stroke-linecap:butt;stroke-linejoin:miter;stroke-miterlimit:4;stroke-dasharray:none;stroke-dashoffset:0;stroke-opacity:1;marker:none;enable-background:accumulate" id="path74-2-9-3-7-4-5-7-4" cx="-77.19" cy="115.598" rx="34.842" ry="34.83" transform="matrix(0.53409965,-0.84542153,0.84503369,0.53471306,0,0)"/></g></g><text style="font-style:normal;font-weight:400;font-size:245.23606873px;line-height:71.84649658px;font-family:Sans;letter-spacing:0;word-spacing:0;fill:#1a1a1a;fill-opacity:1;stroke:none;stroke-width:2.87385988px;stroke-linecap:butt;stroke-linejoin:miter;stroke-opacity:1" id="text819" x="518.498" y="507.326" xml:space="preserve"><tspan id="tspan817" x="518.498" y="507.326" style="font-style:normal;font-variant:normal;font-weight:400;font-stretch:normal;font-size:245.23606873px;font-family:'Tamil MN';-inkscape-font-specification:'Tamil MN';fill:#1a1a1a;stroke-width:2.87385988px">DFTK</tspan></text></svg>